<svg width="16" height="17" viewBox="0 0 16 17" fill="none" xmlns="http://www.w3.org/2000/svg">
<g clip-path="url(#clip0_14_32)">
<path d="M14.125 1.75H13.375V0.5H12.125V1.75H3.875V0.5H2.625V1.75H1.875C0.841125 1.75 0 2.59113 0 3.625V14.625C0 15.6589 0.841125 16.5 1.875 16.5H10.7658L16 11.0645V3.625C16 2.59113 15.1589 1.75 14.125 1.75ZM11.125 14.3249V12.0625C11.125 11.7179 11.4054 11.4375 11.75 11.4375H13.9055L11.125 14.3249ZM14.75 10.1875H11.75C10.7161 10.1875 9.875 11.0286 9.875 12.0625V15.25H1.875C1.53038 15.25 1.25 14.9696 1.25 14.625V6.375H14.75V10.1875ZM14.75 5.125H1.25V3.625C1.25 3.28038 1.53038 3 1.875 3H2.625V4.25H3.875V3H12.125V4.25H13.375V3H14.125C14.4696 3 14.75 3.28038 14.75 3.625V5.125Z" fill="black" fill-opacity="0.5"/>
<rect x="3" y="8" width="3" height="3" rx="1" fill="#808080"/>
</g>
<defs>
<clipPath id="clip0_14_32">
<rect width="16" height="16" fill="white" transform="translate(0 0.5)"/>
</clipPath>
</defs>
</svg>
