<svg width="20" height="20" viewBox="0 0 20 20" fill="none" xmlns="http://www.w3.org/2000/svg">
<path d="M18.4226 10.256C18.4227 10.2558 18.4229 10.2557 18.423 10.2555C18.4422 10.2363 18.4605 10.216 18.4778 10.1949C18.4857 10.1853 18.4926 10.1751 18.5 10.1652C18.5089 10.1533 18.5181 10.1417 18.5263 10.1294C18.5343 10.1175 18.5411 10.1052 18.5484 10.0931C18.5551 10.0819 18.5621 10.071 18.5682 10.0595C18.5748 10.0471 18.5805 10.0343 18.5864 10.0216C18.5921 10.0097 18.5981 9.99786 18.6032 9.98559C18.6082 9.97329 18.6124 9.96071 18.6168 9.94821C18.6216 9.93504 18.6266 9.92208 18.6307 9.90864C18.6345 9.89614 18.6372 9.88344 18.6404 9.87079C18.6439 9.85708 18.6477 9.84352 18.6505 9.82954C18.6534 9.81489 18.6551 9.80012 18.6572 9.7854C18.6589 9.77325 18.6613 9.76125 18.6625 9.74895C18.6679 9.69426 18.6679 9.63915 18.6625 9.58446C18.6613 9.57215 18.6589 9.56016 18.6572 9.54801C18.6551 9.53329 18.6534 9.51852 18.6505 9.50387C18.6477 9.48989 18.6439 9.47633 18.6404 9.46262C18.6372 9.45001 18.6345 9.43727 18.6307 9.42477C18.6266 9.41133 18.6216 9.39833 18.6168 9.3852C18.6123 9.3727 18.6082 9.36012 18.6032 9.34782C18.5981 9.33555 18.5921 9.32376 18.5864 9.3118C18.5805 9.29911 18.5748 9.28633 18.5682 9.27391C18.5621 9.26243 18.555 9.25153 18.5484 9.24036C18.5411 9.22817 18.5343 9.21586 18.5263 9.20399C18.5181 9.19168 18.5089 9.18008 18.5 9.16825C18.4926 9.15833 18.4857 9.14813 18.4778 9.13848C18.4605 9.11743 18.4423 9.09715 18.423 9.0779C18.4229 9.07774 18.4227 9.07758 18.4226 9.07743L12.5893 3.24411C12.2638 2.91868 11.7362 2.91868 11.4107 3.24411C11.0853 3.56954 11.0853 4.09719 11.4107 4.42262L15.8215 8.8334H2.83332C2.37309 8.8334 2 9.20649 2 9.66672C2 10.127 2.37309 10.5 2.83332 10.5H15.8215L11.4107 14.9108C11.0853 15.2362 11.0853 15.7639 11.4107 16.0893C11.7362 16.4147 12.2638 16.4147 12.5893 16.0893L18.4226 10.256Z" fill="white"/>
</svg>
