<svg width="20" height="20" viewBox="0 0 20 20" fill="none" xmlns="http://www.w3.org/2000/svg">
<path d="M10 0C15.5227 0 20 4.47727 20 10C20 15.5227 15.5227 20 10 20C4.47727 20 0 15.5227 0 10C0 4.47727 4.47727 0 10 0ZM10 18.3333C14.6023 18.3333 18.3333 14.6023 18.3333 10C18.3333 5.39773 14.6023 1.66668 10 1.66668C5.39773 1.66668 1.66668 5.39773 1.66668 10C1.66668 14.6023 5.39773 18.3333 10 18.3333Z" fill="white"/>
<path d="M11.0774 5.24407C11.4028 4.91864 11.9305 4.91864 12.2559 5.24407C12.5814 5.5695 12.5814 6.09716 12.2559 6.42259L8.67851 10L12.2559 13.5774C12.5814 13.9029 12.5814 14.4305 12.2559 14.7559C11.9305 15.0814 11.4028 15.0814 11.0774 14.7559L6.91073 10.5893C6.5853 10.2638 6.5853 9.73618 6.91073 9.41075L11.0774 5.24407Z" fill="white"/>
</svg>
