<svg width="20" height="20" viewBox="0 0 20 20" fill="none" xmlns="http://www.w3.org/2000/svg">
<path d="M11.358 1.358C6.59413 1.358 2.72015 5.23607 2.72015 9.99996V10.0285L1.00972 7.45269C0.842349 7.19959 0.499447 7.1302 0.246352 7.29756C-0.00674306 7.46493 -0.07614 7.80784 0.0912291 8.06093L2.57319 11.7961C2.663 11.9308 2.80588 12.0166 2.96508 12.037C2.98957 12.0411 3.00998 12.0411 3.03448 12.0411C3.16919 12.0411 3.29982 11.9921 3.40187 11.8982L6.85131 8.79164C7.07583 8.58753 7.09624 8.24055 6.89213 8.01195C6.68802 7.78743 6.34104 7.76702 6.11244 7.97112L3.82234 10.0408V9.99996C3.82234 5.84023 7.20238 2.46019 11.358 2.46019C15.5137 2.46019 18.8978 5.84023 18.8978 9.99996C18.8978 14.1597 15.5178 17.5397 11.3621 17.5397C9.3496 17.5397 7.45547 16.756 6.03487 15.3313C5.81852 15.1149 5.47153 15.1149 5.25518 15.3313C5.03882 15.5476 5.03882 15.8946 5.25518 16.111C6.88805 17.7438 9.05568 18.6419 11.3621 18.6419C16.1219 18.6419 20 14.7679 20 9.99996C20 5.23198 16.1219 1.358 11.358 1.358Z" fill="#EF4625"/>
</svg>
