<svg width="18" height="18" viewBox="0 0 18 18" fill="none" xmlns="http://www.w3.org/2000/svg">
<path d="M1.50375 9.10687C1.50375 4.9637 4.86246 1.605 9.00563 1.605C13.1488 1.605 16.5075 4.9637 16.5075 9.10687C16.5075 13.25 13.1488 16.6087 9.00563 16.6087C4.86246 16.6087 1.50375 13.25 1.50375 9.10687Z" fill="#EF4625" stroke="white" stroke-width="1.5"/>
<path d="M9.41158 4.78547C9.78064 4.41631 10.3935 4.39355 10.7942 4.78547L13.2137 7.20564C13.5954 7.58753 13.5954 8.2067 13.2137 8.58859C12.8446 8.95776 12.2318 8.98486 11.8311 8.58859L11.6583 8.41564L10.2155 9.85877C10.6508 11.037 10.3594 12.4911 9.41158 13.4289C9.30927 13.5302 9.1518 13.517 9.06594 13.4289L6.99198 11.3543L5.43668 12.9103C5.34124 13.0058 5.18649 13.0058 5.09104 12.9103C5.00294 12.8222 4.98745 12.6691 5.09104 12.5646L6.64639 11.0087L4.57258 8.93433C4.48447 8.8462 4.46752 8.69368 4.57258 8.58859C5.49733 7.66359 6.90194 7.33251 8.14151 7.78416L9.58425 6.34103L9.41158 6.16842C9.01764 5.77234 9.04252 5.15463 9.41158 4.78547Z" fill="white"/>
</svg>
