<svg width="18" height="18" viewBox="0 0 18 18" fill="none" xmlns="http://www.w3.org/2000/svg">
<path d="M1.5 9C1.5 4.85787 4.85787 1.5 9 1.5C13.1421 1.5 16.5 4.85787 16.5 9C16.5 13.1421 13.1421 16.5 9 16.5C4.85787 16.5 1.5 13.1421 1.5 9Z" fill="#1DB11A" stroke="white" stroke-width="1.5"/>
<path d="M12.5303 7.50518C12.8232 7.21229 12.8232 6.73742 12.5303 6.44453C12.2375 6.15163 11.7626 6.15163 11.4697 6.44453L7.96013 9.95408L6.54024 8.47965C6.25293 8.1813 5.77814 8.1723 5.47977 8.45963C5.18141 8.74695 5.17244 9.2217 5.45976 9.52013L7.40976 11.5451C7.54943 11.6902 7.74158 11.773 7.94295 11.7749C8.14425 11.7767 8.33798 11.6976 8.48033 11.5552L12.5303 7.50518Z" fill="white"/>
</svg>
